<svg fill="#303030" viewBox="0 0 1441.7 182.99">
    <defs>
        <path
            id="letterU"
            d="M237.67,182.25h-17.86c-36.24,0-53.59-28.32-53.59-57.93V0h26.03V121.8c0,34.86,36.49,34.13,36.49,34.13,0,0,36.49,1.54,36.49-33.32V0h26.03V124.32c0,29.18-16.66,57.93-53.59,57.93Z"
        />

        <polygon id="letterN" points="337.76 52.47 337.76 182.99 311.52 182.99 311.52 0 327.42 0 434.22 127.45 434.22 0 461.4 0 461.4 182.99 445.71 182.99 337.76 52.47" />

        <rect id="letterI" x="1032.73" y=".46" width="25.61" height="180.34" />

        <rect id="underscore" x="1329" y="158.16" width="114.4" height="25.37" />

        <rect id="middleStroke" x="611.4" y="57" width="88.6" height="26" />

        <mask id="theMask">
            <rect x="611.4" y=".46" width="120" height="181" fill="black" />
        </mask>

        <clipPath id="theClipPath">
            <rect x="730.4" y=".46" width="135" height="181" fill="red" stroke="black" />
        </clipPath>
    </defs>

    <polygon points="1441.7 154.5 1441.7 181.79 1329.74 181.79 1329.74 .46 1441.7 .46 1441.7 25.96 1354.33 25.96 1354.33 57.59 1418.88 57.59 1418.88 82.58 1354.33 82.58 1354.33 154.5 1441.7 154.5" />
    <use href="#underscore" />

    <polygon points="1203.69 180.8 1203.69 155.3 1203.69 .46 1229.3 .46 1229.3 155.3 1312.35 155.3 1312.35 180.8 1229.3 180.8 1203.69 180.8" />

    <polygon points="1078.42 180.8 1078.42 155.3 1078.42 .46 1104.04 .46 1104.04 155.3 1187.09 155.3 1187.09 180.8 1104.04 180.8 1078.42 180.8" />

    <rect id="letterI_top" x="1032.73" y=".46" width="25.61" height="180.34" />
    <use href="#letterI" />

    <path d="M924,182.25S841.84,1.52,841.84,0h30.75l57.71,132.13L986.85,0h31.9l-82.15,182.25h-12.6Z" />

    <g id="clipReveal" clipPath="url(#theClipPath)">
        <path
            id="letterR"
            d="M802.86,81.5l72.32,99.49h-30.49s-65.29-95.65-69.47-99.67h-10.47v99.67h-24.85V0h56.88s37.92-.64,37.92,40.86c0,32.33-22.07,38.85-31.83,40.64Zm-6.86-58.14h-31.26V57.97h32.29s12.81-.64,12.81-17.31-13.84-17.31-13.84-17.31Z"
        />
    </g>

    <polygon points="610.57 .46 721.73 .46 721.73 25.96 635.16 25.96 635.16 57.59 699.7 57.59 699.7 82.58 635.16 82.58 635.16 154.5 721.73 154.5 721.73 181.79 610.57 181.79 610.57 .46" />

    <g>
        <polyline points="721 13, 623 13, 623 168 ,721 168" stroke="black" fill="transparent" strokeWidth="25"></polyline>

        <use href="#middleStroke" />
    </g>

    <rect x="479.07" y="157.16" width="114.4" height="23.37" />

    <path
        id="letterD"
        d="M502.13,143.81h-23.05V.93l24.98-.59s89.42-9.56,89.42,71.92-91.35,71.54-91.35,71.54Zm66.42-71.93c0-15.28-4.73-27.17-14.05-35.35-16.45-14.41-42.93-13.73-51.03-13.08V120.75c8.08,.01,34.59,.78,51.04-13.59,9.32-7.95,14.04-20.01,14.04-35.29Z"
    />

    <polygon id="letterN" points="337.76 52.47 337.76 182.99 311.52 182.99 311.52 0 327.42 0 434.22 127.45 434.22 0 461.4 0 461.4 182.99 445.71 182.99 337.76 52.47" />
    <use href="#letterN" />

    <path
        id="letterU"
        d="M237.67,182.25h-17.86c-36.24,0-53.59-28.32-53.59-57.93V0h26.03V121.8c0,34.86,36.49,34.13,36.49,34.13,0,0,36.49,1.54,36.49-33.32V0h26.03V124.32c0,29.18-16.66,57.93-53.59,57.93Z"
    />
    <use href="#letterU" />

    <path d="M29.2,182.78H0V1.19L31.64,.44s113.66-12.16,113.66,91.41S29.2,182.78,29.2,182.78ZM26.13,26.57V156.36s92.02,12.95,92.02-65S26.13,26.57,26.13,26.57Z" />
</svg>