<svg xmlns="http://www.w3.org/2000/svg" width="79.09" height="17.62" viewBox="0 0 79.09 17.62">
  <defs>
    <style>
      .cls-1 {
        fill-rule: evenodd;
      }
    </style>
  </defs>
  <path class="cls-1" d="M7584.25,3435.25a14.58,14.58,0,0,0-2.13.22,6.57,6.57,0,0,0-1.5.96c-0.06.02-.78,0.66-3.71-0.02s-3.15-.61-3.62-0.48a3.9,3.9,0,0,1,1.68.97s-5.69-2.28-6.62-1.25a1.952,1.952,0,0,1,1.6.64,6.691,6.691,0,0,0-6.57,1.4s2.92,5.06,7.94,3.93a2.357,2.357,0,0,0-.48.84s3.01,1.46,10-.31c0,0,4.28-.98,6.11-4.18a12.381,12.381,0,0,1,.87-1.19c0.21-.18,1.43-1.27,1.43-1.27a1.75,1.75,0,0,0-.2-0.71,4.132,4.132,0,0,0-1.16.86C7587.08,3436.3,7584.69,3436.44,7584.25,3435.25Zm1.24,2.14c-6.86,4.58-18.29,1.03-18.29,1.03,3.23,0.01,9.6,2.75,18.29-1.03h0Zm0,0" transform="translate(-7510.16 -3425.41)"/>
  <path class="cls-1" d="M7518.78,3433.25a17.909,17.909,0,0,1,3.03-.61,10.959,10.959,0,0,1,2.94.8c0.1,0,1.62.67,6-1.99s4.8-2.67,5.63-2.7a6.762,6.762,0,0,0-2.21,2.49s8.03-6.76,10.08-5.53a3.314,3.314,0,0,0-2.27,1.89,11.235,11.235,0,0,1,11.39-1.16s-2.1,9.86-10.83,10.65a3.989,3.989,0,0,1,1.21,1.13s-4.11,3.99-16.37,4.75c0,0-7.45.63-12.08-3.68a13.029,13.029,0,0,0-2.85-1.96l-2.17-.87a2.9,2.9,0,0,1-.04-1.27c0.17-.18,1.31.45,2.33,0.8C7515.2,3436.91,7518.2,3435.34,7518.78,3433.25Zm-1.42,4.32c13.51,3.93,30.19-7.91,30.19-7.91-5.24,1.71-14.13,9.57-30.19,7.91h0Zm0,0" transform="translate(-7510.16 -3425.41)"/>
</svg>
