<?xml version="1.0" encoding="utf-8"?>
<!-- Generator: Adobe Illustrator 26.2.0, SVG Export Plug-In . SVG Version: 6.00 Build 0)  -->
<svg version="1.1" id="a" xmlns="http://www.w3.org/2000/svg" xmlns:xlink="http://www.w3.org/1999/xlink" x="0px" y="0px"
	 viewBox="0 0 1441.7 183" style="enable-background:new 0 0 1441.7 183;" xml:space="preserve">
<style type="text/css">
	.st0{fill-rule:evenodd;clip-rule:evenodd;fill:#303030;}
	.st1{fill:#303030;}
	.st2{fill-rule:evenodd;clip-rule:evenodd;fill:none;}
</style>
<polygon class="st0" points="1353.5,153.9 1354,181.2 1328.9,181.2 1328.9,-0.2 1440.9,-0.2 1440.9,25.3 1353.5,25.3 1353.5,57 
	1418.1,57 1418.1,81.9 1353.5,81.9 1353.5,153.9 "/>
<polygon class="st0" points="1203.7,181.8 1203.7,156.3 1203.7,1.5 1229.3,1.5 1229.3,156.3 1312.3,156.3 1312.3,181.8 
	1229.3,181.8 "/>
<polygon class="st0" points="1078.4,181.8 1078.4,156.3 1078.4,1.5 1104,1.5 1104,156.3 1187.1,156.3 1187.1,181.8 1104,181.8 "/>
<rect x="1031.7" y="1.5" class="st1" width="25.6" height="180.3"/>
<path class="st0" d="M927.9,183.2c0,0-82.8-180.5-82.8-182l30.7-0.1L934.1,133L990.2,0.7l31.9-0.1l-81.5,182.5L927.9,183.2z"/>
<path class="st0" d="M802.9,82.5l72.3,99.5h-30.5c0,0-65.3-95.7-69.5-99.7h-10.5V182h-24.8V1h56.9c0,0,37.9-0.6,37.9,40.9
	C834.7,74.2,812.6,80.7,802.9,82.5L802.9,82.5z M796,24.4h-31.3V59H797c0,0,12.8-0.6,12.8-17.3S796,24.3,796,24.4L796,24.4z"/>
<polygon class="st0" points="610.6,0.5 721.7,0.5 721.7,26 635.2,26 635.2,57.6 635.2,57.6 635.2,82.6 635.2,82.6 635.2,154.5 
	721.7,154.5 721.7,181.8 610.6,181.8 "/>
<rect x="479.1" y="158.2" class="st1" width="114.4" height="23.4"/>
<path class="st0" d="M502.1,143.8h-23V0.9l25-0.6c0,0,89.4-9.6,89.4,71.9S502.1,143.8,502.1,143.8L502.1,143.8z M568.5,71.9
	c0-15.3-4.7-27.2-14-35.3c-16.5-14.4-42.9-13.7-51-13.1v97.3c8.1,0,34.6,0.8,51-13.6C563.8,99.2,568.5,87.1,568.5,71.9L568.5,71.9z"
	/>
<polygon class="st0" points="337.8,52.5 337.8,183 311.5,183 311.5,0 327.4,0 434.2,127.4 434.2,0 461.4,0 461.4,183 445.7,183 "/>
<path class="st0" d="M237.7,182.2h-17.9c-36.2,0-53.6-28.3-53.6-57.9V0h26v121.8c0,34.9,36.5,34.1,36.5,34.1s36.5,1.5,36.5-33.3V0
	h26v124.3C291.3,153.5,274.6,182.2,237.7,182.2L237.7,182.2z"/>
<path class="st0" d="M29.2,182.8H0V1.2l31.6-0.8c0,0,113.7-12.2,113.7,91.4S29.2,182.8,29.2,182.8z M26.1,26.6v129.8
	c0,0,92,12.9,92-65S26.1,26.6,26.1,26.6z"/>
<polygon class="st0" points="629.7,59.6 629.7,59.6 629.7,59.6 629.7,59.6 629.7,59.6 694.3,59.6 694.3,84.6 629.7,84.6 629.7,84.6 
	629.7,84.6 629.7,84.6 629.7,84.6 "/>
<rect x="1329.9" y="159.2" class="st1" width="112" height="23.4"/>
<rect x="610.6" y="0" class="st2" width="118.4" height="183.3"/>
<rect x="472" y="310.9" class="st2" width="118.4" height="183.3"/>
</svg>
